ISO-10303-21;
HEADER;
/* Generated by software containing ST-Developer
 * from STEP Tools, Inc. (www.steptools.com) 
 */

FILE_DESCRIPTION(
/* description */ (''),
/* implementation_level */ '2;1');

FILE_NAME(
/* name */ 'krytka_lozisko.step',
/* time_stamp */ '2026-02-19T18:18:28+01:00',
/* author */ (''),
/* organization */ (''),
/* preprocessor_version */ 'ST-DEVELOPER v20.1',
/* originating_system */ 'Autodesk Translation Framework v14.24.0.0',
/* authorisation */ '');

FILE_SCHEMA (('AUTOMOTIVE_DESIGN { 1 0 10303 214 3 1 1 }'));
ENDSEC;

DATA;
#10=MECHANICAL_DESIGN_GEOMETRIC_PRESENTATION_REPRESENTATION('',(#13),#566);
#11=SHAPE_REPRESENTATION_RELATIONSHIP('SRR','None',#573,#12);
#12=ADVANCED_BREP_SHAPE_REPRESENTATION('',(#14),#565);
#13=STYLED_ITEM('',(#582),#14);
#14=MANIFOLD_SOLID_BREP('Body1',#239);
#15=B_SPLINE_CURVE_WITH_KNOTS('',3,(#342,#343,#344,#345,#346,#347,#348,
#349,#350,#351,#352,#353,#354,#355,#356,#357,#358,#359),.UNSPECIFIED.,.F.,
 .F.,(4,2,2,2,2,2,2,2,4),(0.,0.244872968446205,0.48974593689241,0.734618886247152,
0.979491835601895,1.22436478495664,1.46923773431138,1.71411070275759,1.95898367120379),
 .UNSPECIFIED.);
#16=B_SPLINE_CURVE_WITH_KNOTS('',3,(#360,#361,#362,#363,#364,#365,#366,
#367,#368,#369,#370,#371,#372,#373,#374,#375,#376,#377),.UNSPECIFIED.,.F.,
 .F.,(4,2,2,2,2,2,2,2,4),(1.95898367120379,2.20385663965,2.4487296080962,
2.69360255745094,2.93847550680569,3.18334845616043,3.42822140551517,3.67309437396138,
3.91796734240758),.UNSPECIFIED.);
#17=B_SPLINE_CURVE_WITH_KNOTS('',3,(#384,#385,#386,#387,#388,#389,#390,
#391,#392,#393,#394,#395,#396,#397,#398,#399,#400,#401),.UNSPECIFIED.,.F.,
 .F.,(4,2,2,2,2,2,2,2,4),(0.,0.0847181352384779,0.169436270476956,0.254786380803952,
0.340136491130947,0.425595595817196,0.511054700503444,0.59578385437111,
0.680513008238776),.UNSPECIFIED.);
#18=B_SPLINE_CURVE_WITH_KNOTS('',3,(#402,#403,#404,#405,#406,#407,#408,
#409,#410,#411,#412,#413,#414,#415,#416,#417,#418,#419),.UNSPECIFIED.,.F.,
 .F.,(4,2,2,2,2,2,2,2,4),(0.680513008238776,0.765242162106441,0.849971315974107,
0.935430420660356,1.0208895253466,1.1062396356736,1.1915897460006,1.27630788123907,
1.36102601647755),.UNSPECIFIED.);
#19=B_SPLINE_CURVE_WITH_KNOTS('',3,(#426,#427,#428,#429,#430,#431,#432,
#433,#434,#435,#436,#437,#438,#439,#440,#441,#442,#443),.UNSPECIFIED.,.F.,
 .F.,(4,2,2,2,2,2,2,2,4),(0.,0.0847291538689638,0.169458307737928,0.254917412393558,
0.340376517049189,0.425726627348116,0.511076737647043,0.595794872887085,
0.680513008127127),.UNSPECIFIED.);
#20=B_SPLINE_CURVE_WITH_KNOTS('',3,(#444,#445,#446,#447,#448,#449,#450,
#451,#452,#453,#454,#455,#456,#457,#458,#459,#460,#461),.UNSPECIFIED.,.F.,
 .F.,(4,2,2,2,2,2,2,2,4),(0.680513008127127,0.765231143367169,0.849949278607211,
0.935299388906138,1.02064949920506,1.1061086038607,1.19156770851633,1.27629686238529,
1.36102601625425),.UNSPECIFIED.);
#21=B_SPLINE_CURVE_WITH_KNOTS('',3,(#472,#473,#474,#475,#476,#477,#478,
#479,#480,#481,#482,#483,#484,#485,#486,#487,#488,#489,#490,#491,#492,#493,
#494,#495,#496,#497,#498,#499,#500,#501,#502,#503,#504,#505),
 .UNSPECIFIED.,.T.,.F.,(4,2,2,2,2,2,2,2,2,2,2,2,2,2,2,2,4),(0.,0.354166086843619,
0.708332173687238,1.06249813957237,1.41666410545751,1.77083007134265,2.12499603722778,
2.4791621240714,2.83332821091502,3.18749429775864,3.54166038460226,3.8958263504874,
4.24999231637253,4.60415828225767,4.9583242481428,5.31249033498642,5.66665642183004),
 .UNSPECIFIED.);
#22=B_SPLINE_CURVE_WITH_KNOTS('',3,(#508,#509,#510,#511,#512,#513,#514,
#515,#516,#517,#518,#519,#520,#521,#522,#523,#524,#525,#526,#527,#528,#529,
#530,#531,#532,#533,#534,#535,#536,#537,#538,#539,#540,#541),
 .UNSPECIFIED.,.T.,.F.,(4,2,2,2,2,2,2,2,2,2,2,2,2,2,2,2,4),(0.,0.282555923571544,
0.565111847143088,0.847667731648659,1.13022361615423,1.4127795006598,1.69533538516537,
1.97789130873692,2.26044723230846,2.54300315588,2.82555907945155,3.10811496395712,
3.39067084846269,3.67322673296826,3.95578261747383,4.23833854104538,4.52089446461692),
 .UNSPECIFIED.);
#23=LINE('',#340,#38);
#24=LINE('',#382,#39);
#25=LINE('',#424,#40);
#26=LINE('',#467,#41);
#27=LINE('',#470,#42);
#28=LINE('',#544,#43);
#29=LINE('',#546,#44);
#30=LINE('',#547,#45);
#31=LINE('',#550,#46);
#32=LINE('',#552,#47);
#33=LINE('',#553,#48);
#34=LINE('',#555,#49);
#35=LINE('',#557,#50);
#36=LINE('',#560,#51);
#37=LINE('',#562,#52);
#38=VECTOR('',#285,0.65);
#39=VECTOR('',#290,0.225);
#40=VECTOR('',#295,0.225);
#41=VECTOR('',#300,1.);
#42=VECTOR('',#303,1.);
#43=VECTOR('',#308,1.);
#44=VECTOR('',#309,1.);
#45=VECTOR('',#310,1.);
#46=VECTOR('',#313,1.);
#47=VECTOR('',#314,1.);
#48=VECTOR('',#315,1.);
#49=VECTOR('',#318,1.);
#50=VECTOR('',#321,1.);
#51=VECTOR('',#326,0.94);
#52=VECTOR('',#329,0.75);
#53=CYLINDRICAL_SURFACE('',#256,0.65);
#54=CYLINDRICAL_SURFACE('',#258,0.225);
#55=CYLINDRICAL_SURFACE('',#260,0.225);
#56=CYLINDRICAL_SURFACE('',#262,16.675);
#57=CYLINDRICAL_SURFACE('',#265,16.675);
#58=CYLINDRICAL_SURFACE('',#271,0.94);
#59=CYLINDRICAL_SURFACE('',#272,0.75);
#60=FACE_BOUND('',#82,.T.);
#61=FACE_BOUND('',#87,.T.);
#62=FACE_BOUND('',#88,.T.);
#63=FACE_BOUND('',#89,.T.);
#64=FACE_BOUND('',#91,.T.);
#65=FACE_BOUND('',#97,.T.);
#66=FACE_BOUND('',#98,.T.);
#67=FACE_BOUND('',#99,.T.);
#68=FACE_OUTER_BOUND('',#81,.T.);
#69=FACE_OUTER_BOUND('',#83,.T.);
#70=FACE_OUTER_BOUND('',#84,.T.);
#71=FACE_OUTER_BOUND('',#85,.T.);
#72=FACE_OUTER_BOUND('',#86,.T.);
#73=FACE_OUTER_BOUND('',#90,.T.);
#74=FACE_OUTER_BOUND('',#92,.T.);
#75=FACE_OUTER_BOUND('',#93,.T.);
#76=FACE_OUTER_BOUND('',#94,.T.);
#77=FACE_OUTER_BOUND('',#95,.T.);
#78=FACE_OUTER_BOUND('',#96,.T.);
#79=FACE_OUTER_BOUND('',#100,.T.);
#80=FACE_OUTER_BOUND('',#101,.T.);
#81=EDGE_LOOP('',(#160));
#82=EDGE_LOOP('',(#161));
#83=EDGE_LOOP('',(#162,#163,#164,#165,#166));
#84=EDGE_LOOP('',(#167,#168,#169,#170,#171));
#85=EDGE_LOOP('',(#172,#173,#174,#175,#176));
#86=EDGE_LOOP('',(#177,#178,#179,#180));
#87=EDGE_LOOP('',(#181,#182));
#88=EDGE_LOOP('',(#183,#184));
#89=EDGE_LOOP('',(#185));
#90=EDGE_LOOP('',(#186));
#91=EDGE_LOOP('',(#187,#188));
#92=EDGE_LOOP('',(#189,#190,#191,#192));
#93=EDGE_LOOP('',(#193,#194,#195,#196));
#94=EDGE_LOOP('',(#197,#198,#199,#200));
#95=EDGE_LOOP('',(#201,#202,#203,#204));
#96=EDGE_LOOP('',(#205,#206,#207,#208));
#97=EDGE_LOOP('',(#209));
#98=EDGE_LOOP('',(#210));
#99=EDGE_LOOP('',(#211));
#100=EDGE_LOOP('',(#212,#213,#214,#215));
#101=EDGE_LOOP('',(#216,#217,#218,#219));
#102=CIRCLE('',#254,0.94);
#103=CIRCLE('',#255,0.75);
#104=CIRCLE('',#257,0.65);
#105=CIRCLE('',#259,0.225);
#106=CIRCLE('',#261,0.225);
#107=CIRCLE('',#263,16.675);
#108=CIRCLE('',#264,16.675);
#109=VERTEX_POINT('',#332);
#110=VERTEX_POINT('',#334);
#111=VERTEX_POINT('',#337);
#112=VERTEX_POINT('',#339);
#113=VERTEX_POINT('',#341);
#114=VERTEX_POINT('',#379);
#115=VERTEX_POINT('',#381);
#116=VERTEX_POINT('',#383);
#117=VERTEX_POINT('',#421);
#118=VERTEX_POINT('',#423);
#119=VERTEX_POINT('',#425);
#120=VERTEX_POINT('',#463);
#121=VERTEX_POINT('',#464);
#122=VERTEX_POINT('',#466);
#123=VERTEX_POINT('',#468);
#124=VERTEX_POINT('',#471);
#125=VERTEX_POINT('',#507);
#126=VERTEX_POINT('',#543);
#127=VERTEX_POINT('',#545);
#128=VERTEX_POINT('',#549);
#129=VERTEX_POINT('',#551);
#130=EDGE_CURVE('',#109,#109,#102,.T.);
#131=EDGE_CURVE('',#110,#110,#103,.T.);
#132=EDGE_CURVE('',#111,#111,#104,.T.);
#133=EDGE_CURVE('',#111,#112,#23,.T.);
#134=EDGE_CURVE('',#113,#112,#15,.T.);
#135=EDGE_CURVE('',#112,#113,#16,.T.);
#136=EDGE_CURVE('',#114,#114,#105,.T.);
#137=EDGE_CURVE('',#114,#115,#24,.T.);
#138=EDGE_CURVE('',#116,#115,#17,.T.);
#139=EDGE_CURVE('',#115,#116,#18,.T.);
#140=EDGE_CURVE('',#117,#117,#106,.T.);
#141=EDGE_CURVE('',#117,#118,#25,.T.);
#142=EDGE_CURVE('',#119,#118,#19,.T.);
#143=EDGE_CURVE('',#118,#119,#20,.T.);
#144=EDGE_CURVE('',#120,#121,#107,.T.);
#145=EDGE_CURVE('',#122,#120,#26,.T.);
#146=EDGE_CURVE('',#123,#122,#108,.T.);
#147=EDGE_CURVE('',#121,#123,#27,.T.);
#148=EDGE_CURVE('',#124,#124,#21,.T.);
#149=EDGE_CURVE('',#125,#125,#22,.T.);
#150=EDGE_CURVE('',#122,#126,#28,.T.);
#151=EDGE_CURVE('',#127,#126,#29,.T.);
#152=EDGE_CURVE('',#123,#127,#30,.T.);
#153=EDGE_CURVE('',#121,#128,#31,.T.);
#154=EDGE_CURVE('',#129,#128,#32,.T.);
#155=EDGE_CURVE('',#120,#129,#33,.T.);
#156=EDGE_CURVE('',#126,#129,#34,.T.);
#157=EDGE_CURVE('',#128,#127,#35,.T.);
#158=EDGE_CURVE('',#124,#109,#36,.T.);
#159=EDGE_CURVE('',#125,#110,#37,.T.);
#160=ORIENTED_EDGE('',*,*,#130,.F.);
#161=ORIENTED_EDGE('',*,*,#131,.F.);
#162=ORIENTED_EDGE('',*,*,#132,.F.);
#163=ORIENTED_EDGE('',*,*,#133,.T.);
#164=ORIENTED_EDGE('',*,*,#134,.F.);
#165=ORIENTED_EDGE('',*,*,#135,.F.);
#166=ORIENTED_EDGE('',*,*,#133,.F.);
#167=ORIENTED_EDGE('',*,*,#136,.F.);
#168=ORIENTED_EDGE('',*,*,#137,.T.);
#169=ORIENTED_EDGE('',*,*,#138,.F.);
#170=ORIENTED_EDGE('',*,*,#139,.F.);
#171=ORIENTED_EDGE('',*,*,#137,.F.);
#172=ORIENTED_EDGE('',*,*,#140,.F.);
#173=ORIENTED_EDGE('',*,*,#141,.T.);
#174=ORIENTED_EDGE('',*,*,#142,.F.);
#175=ORIENTED_EDGE('',*,*,#143,.F.);
#176=ORIENTED_EDGE('',*,*,#141,.F.);
#177=ORIENTED_EDGE('',*,*,#144,.F.);
#178=ORIENTED_EDGE('',*,*,#145,.F.);
#179=ORIENTED_EDGE('',*,*,#146,.F.);
#180=ORIENTED_EDGE('',*,*,#147,.F.);
#181=ORIENTED_EDGE('',*,*,#138,.T.);
#182=ORIENTED_EDGE('',*,*,#139,.T.);
#183=ORIENTED_EDGE('',*,*,#142,.T.);
#184=ORIENTED_EDGE('',*,*,#143,.T.);
#185=ORIENTED_EDGE('',*,*,#148,.T.);
#186=ORIENTED_EDGE('',*,*,#149,.T.);
#187=ORIENTED_EDGE('',*,*,#134,.T.);
#188=ORIENTED_EDGE('',*,*,#135,.T.);
#189=ORIENTED_EDGE('',*,*,#146,.T.);
#190=ORIENTED_EDGE('',*,*,#150,.T.);
#191=ORIENTED_EDGE('',*,*,#151,.F.);
#192=ORIENTED_EDGE('',*,*,#152,.F.);
#193=ORIENTED_EDGE('',*,*,#144,.T.);
#194=ORIENTED_EDGE('',*,*,#153,.T.);
#195=ORIENTED_EDGE('',*,*,#154,.F.);
#196=ORIENTED_EDGE('',*,*,#155,.F.);
#197=ORIENTED_EDGE('',*,*,#145,.T.);
#198=ORIENTED_EDGE('',*,*,#155,.T.);
#199=ORIENTED_EDGE('',*,*,#156,.F.);
#200=ORIENTED_EDGE('',*,*,#150,.F.);
#201=ORIENTED_EDGE('',*,*,#147,.T.);
#202=ORIENTED_EDGE('',*,*,#152,.T.);
#203=ORIENTED_EDGE('',*,*,#157,.F.);
#204=ORIENTED_EDGE('',*,*,#153,.F.);
#205=ORIENTED_EDGE('',*,*,#157,.T.);
#206=ORIENTED_EDGE('',*,*,#151,.T.);
#207=ORIENTED_EDGE('',*,*,#156,.T.);
#208=ORIENTED_EDGE('',*,*,#154,.T.);
#209=ORIENTED_EDGE('',*,*,#132,.T.);
#210=ORIENTED_EDGE('',*,*,#136,.T.);
#211=ORIENTED_EDGE('',*,*,#140,.T.);
#212=ORIENTED_EDGE('',*,*,#148,.F.);
#213=ORIENTED_EDGE('',*,*,#158,.T.);
#214=ORIENTED_EDGE('',*,*,#130,.T.);
#215=ORIENTED_EDGE('',*,*,#158,.F.);
#216=ORIENTED_EDGE('',*,*,#149,.F.);
#217=ORIENTED_EDGE('',*,*,#159,.T.);
#218=ORIENTED_EDGE('',*,*,#131,.T.);
#219=ORIENTED_EDGE('',*,*,#159,.F.);
#220=PLANE('',#253);
#221=PLANE('',#266);
#222=PLANE('',#267);
#223=PLANE('',#268);
#224=PLANE('',#269);
#225=PLANE('',#270);
#226=ADVANCED_FACE('',(#68,#60),#220,.F.);
#227=ADVANCED_FACE('',(#69),#53,.F.);
#228=ADVANCED_FACE('',(#70),#54,.F.);
#229=ADVANCED_FACE('',(#71),#55,.F.);
#230=ADVANCED_FACE('',(#72,#61,#62,#63),#56,.F.);
#231=ADVANCED_FACE('',(#73,#64),#57,.F.);
#232=ADVANCED_FACE('',(#74),#221,.T.);
#233=ADVANCED_FACE('',(#75),#222,.T.);
#234=ADVANCED_FACE('',(#76),#223,.T.);
#235=ADVANCED_FACE('',(#77),#224,.T.);
#236=ADVANCED_FACE('',(#78,#65,#66,#67),#225,.T.);
#237=ADVANCED_FACE('',(#79),#58,.T.);
#238=ADVANCED_FACE('',(#80),#59,.F.);
#239=CLOSED_SHELL('',(#226,#227,#228,#229,#230,#231,#232,#233,#234,#235,
#236,#237,#238));
#240=DERIVED_UNIT_ELEMENT(#242,1.);
#241=DERIVED_UNIT_ELEMENT(#568,-3.);
#242=(
MASS_UNIT()
NAMED_UNIT(*)
SI_UNIT(.KILO.,.GRAM.)
);
#243=DERIVED_UNIT((#240,#241));
#244=MEASURE_REPRESENTATION_ITEM('density measure',
POSITIVE_RATIO_MEASURE(7850.),#243);
#245=PROPERTY_DEFINITION_REPRESENTATION(#250,#247);
#246=PROPERTY_DEFINITION_REPRESENTATION(#251,#248);
#247=REPRESENTATION('material name',(#249),#565);
#248=REPRESENTATION('density',(#244),#565);
#249=DESCRIPTIVE_REPRESENTATION_ITEM('Steel','Steel');
#250=PROPERTY_DEFINITION('material property','material name',#575);
#251=PROPERTY_DEFINITION('material property','density of part',#575);
#252=AXIS2_PLACEMENT_3D('',#330,#273,#274);
#253=AXIS2_PLACEMENT_3D('',#331,#275,#276);
#254=AXIS2_PLACEMENT_3D('',#333,#277,#278);
#255=AXIS2_PLACEMENT_3D('',#335,#279,#280);
#256=AXIS2_PLACEMENT_3D('',#336,#281,#282);
#257=AXIS2_PLACEMENT_3D('',#338,#283,#284);
#258=AXIS2_PLACEMENT_3D('',#378,#286,#287);
#259=AXIS2_PLACEMENT_3D('',#380,#288,#289);
#260=AXIS2_PLACEMENT_3D('',#420,#291,#292);
#261=AXIS2_PLACEMENT_3D('',#422,#293,#294);
#262=AXIS2_PLACEMENT_3D('',#462,#296,#297);
#263=AXIS2_PLACEMENT_3D('',#465,#298,#299);
#264=AXIS2_PLACEMENT_3D('',#469,#301,#302);
#265=AXIS2_PLACEMENT_3D('',#506,#304,#305);
#266=AXIS2_PLACEMENT_3D('',#542,#306,#307);
#267=AXIS2_PLACEMENT_3D('',#548,#311,#312);
#268=AXIS2_PLACEMENT_3D('',#554,#316,#317);
#269=AXIS2_PLACEMENT_3D('',#556,#319,#320);
#270=AXIS2_PLACEMENT_3D('',#558,#322,#323);
#271=AXIS2_PLACEMENT_3D('',#559,#324,#325);
#272=AXIS2_PLACEMENT_3D('',#561,#327,#328);
#273=DIRECTION('axis',(0.,0.,1.));
#274=DIRECTION('refdir',(1.,0.,0.));
#275=DIRECTION('center_axis',(1.,0.,0.));
#276=DIRECTION('ref_axis',(0.,1.,0.));
#277=DIRECTION('center_axis',(1.,0.,0.));
#278=DIRECTION('ref_axis',(0.,1.,0.));
#279=DIRECTION('center_axis',(-1.,0.,0.));
#280=DIRECTION('ref_axis',(0.,1.,0.));
#281=DIRECTION('center_axis',(-1.,0.,0.));
#282=DIRECTION('ref_axis',(0.,1.,0.));
#283=DIRECTION('center_axis',(-1.,0.,0.));
#284=DIRECTION('ref_axis',(0.,1.,0.));
#285=DIRECTION('',(-1.,0.,0.));
#286=DIRECTION('center_axis',(-1.,0.,0.));
#287=DIRECTION('ref_axis',(0.,1.,0.));
#288=DIRECTION('center_axis',(-1.,0.,0.));
#289=DIRECTION('ref_axis',(0.,1.,0.));
#290=DIRECTION('',(-1.,0.,0.));
#291=DIRECTION('center_axis',(-1.,0.,0.));
#292=DIRECTION('ref_axis',(0.,1.,0.));
#293=DIRECTION('center_axis',(-1.,0.,0.));
#294=DIRECTION('ref_axis',(0.,1.,0.));
#295=DIRECTION('',(-1.,0.,0.));
#296=DIRECTION('center_axis',(0.,0.,-1.));
#297=DIRECTION('ref_axis',(1.,-1.80851929239378E-14,0.));
#298=DIRECTION('center_axis',(0.,0.,1.));
#299=DIRECTION('ref_axis',(-1.,0.,0.));
#300=DIRECTION('',(0.,-2.22044604925031E-16,-1.));
#301=DIRECTION('center_axis',(0.,0.,-1.));
#302=DIRECTION('ref_axis',(-1.,0.,0.));
#303=DIRECTION('',(0.,0.,1.));
#304=DIRECTION('center_axis',(0.,0.,-1.));
#305=DIRECTION('ref_axis',(1.,-1.87742114936174E-14,0.));
#306=DIRECTION('center_axis',(0.,0.,1.));
#307=DIRECTION('ref_axis',(0.,-1.,0.));
#308=DIRECTION('',(1.,0.,0.));
#309=DIRECTION('',(0.,-1.,0.));
#310=DIRECTION('',(1.,0.,0.));
#311=DIRECTION('center_axis',(0.,0.,-1.));
#312=DIRECTION('ref_axis',(0.,1.,0.));
#313=DIRECTION('',(1.,0.,0.));
#314=DIRECTION('',(0.,1.,0.));
#315=DIRECTION('',(1.,0.,0.));
#316=DIRECTION('center_axis',(0.,-1.,2.22044604925031E-16));
#317=DIRECTION('ref_axis',(0.,-2.22044604925031E-16,-1.));
#318=DIRECTION('',(0.,-2.22044604925031E-16,-1.));
#319=DIRECTION('center_axis',(0.,1.,0.));
#320=DIRECTION('ref_axis',(0.,0.,1.));
#321=DIRECTION('',(0.,0.,1.));
#322=DIRECTION('center_axis',(1.,0.,0.));
#323=DIRECTION('ref_axis',(0.,0.,-1.));
#324=DIRECTION('center_axis',(1.,0.,0.));
#325=DIRECTION('ref_axis',(0.,1.,0.));
#326=DIRECTION('',(-1.,0.,0.));
#327=DIRECTION('center_axis',(1.,0.,0.));
#328=DIRECTION('ref_axis',(0.,1.,0.));
#329=DIRECTION('',(-1.,0.,0.));
#330=CARTESIAN_POINT('',(0.,0.,0.));
#331=CARTESIAN_POINT('Origin',(0.48,0.,0.));
#332=CARTESIAN_POINT('',(0.48,-0.94,-1.15116799119851E-16));
#333=CARTESIAN_POINT('Origin',(0.48,0.,0.));
#334=CARTESIAN_POINT('',(0.48,-0.75,-9.18485099360515E-17));
#335=CARTESIAN_POINT('Origin',(0.48,0.,0.));
#336=CARTESIAN_POINT('Origin',(0.95,0.,0.));
#337=CARTESIAN_POINT('',(0.95,-0.65,-7.9602041944578E-17));
#338=CARTESIAN_POINT('Origin',(0.95,0.,0.));
#339=CARTESIAN_POINT('',(0.725797926675605,-0.65,7.9602041944578E-17));
#340=CARTESIAN_POINT('',(0.95,-0.65,7.9602041944578E-17));
#341=CARTESIAN_POINT('',(0.725797926675629,0.65,-1.38777878078145E-17));
#342=CARTESIAN_POINT('Ctrl Pts',(0.725797926675629,0.65,-1.38777878078145E-17));
#343=CARTESIAN_POINT('Ctrl Pts',(0.725797926675629,0.65,0.0816243228154016));
#344=CARTESIAN_POINT('Ctrl Pts',(0.7264594078417,0.633685667764061,0.168683648411923));
#345=CARTESIAN_POINT('Ctrl Pts',(0.728849969842921,0.567348215951834,0.328827768709647));
#346=CARTESIAN_POINT('Ctrl Pts',(0.730544690941315,0.517325552235097,0.401913263307415));
#347=CARTESIAN_POINT('Ctrl Pts',(0.733727053027637,0.401913267806461,0.517325547736051));
#348=CARTESIAN_POINT('Ctrl Pts',(0.735421212219846,0.328827771091786,0.567348214676728));
#349=CARTESIAN_POINT('Ctrl Pts',(0.737810489521308,0.168683644434058,0.633685669700175));
#350=CARTESIAN_POINT('Ctrl Pts',(0.738471408448941,0.081624316451581,0.65));
#351=CARTESIAN_POINT('Ctrl Pts',(0.738471408448938,-0.0816243164515809,
0.65));
#352=CARTESIAN_POINT('Ctrl Pts',(0.737810489521301,-0.168683644434058,0.633685669700175));
#353=CARTESIAN_POINT('Ctrl Pts',(0.735421212219832,-0.328827771091786,0.567348214676728));
#354=CARTESIAN_POINT('Ctrl Pts',(0.733727053027621,-0.401913267806461,0.517325547736051));
#355=CARTESIAN_POINT('Ctrl Pts',(0.730544690941295,-0.517325552235097,0.401913263307415));
#356=CARTESIAN_POINT('Ctrl Pts',(0.728849969842898,-0.567348215951834,0.328827768709647));
#357=CARTESIAN_POINT('Ctrl Pts',(0.726459407841674,-0.633685667764061,0.168683648411923));
#358=CARTESIAN_POINT('Ctrl Pts',(0.725797926675605,-0.65,0.0816243228154017));
#359=CARTESIAN_POINT('Ctrl Pts',(0.725797926675605,-0.65,1.38777878078145E-17));
#360=CARTESIAN_POINT('Ctrl Pts',(0.725797926675605,-0.65,4.16333634234434E-17));
#361=CARTESIAN_POINT('Ctrl Pts',(0.725797926675605,-0.65,-0.0816243228154015));
#362=CARTESIAN_POINT('Ctrl Pts',(0.726459407841674,-0.633685667764062,-0.168683648411923));
#363=CARTESIAN_POINT('Ctrl Pts',(0.728849969842898,-0.567348215951835,-0.328827768709646));
#364=CARTESIAN_POINT('Ctrl Pts',(0.730544690941295,-0.517325552235097,-0.401913263307415));
#365=CARTESIAN_POINT('Ctrl Pts',(0.733727053027621,-0.401913267806461,-0.517325547736051));
#366=CARTESIAN_POINT('Ctrl Pts',(0.735421212219832,-0.328827771091786,-0.567348214676728));
#367=CARTESIAN_POINT('Ctrl Pts',(0.737810489521301,-0.168683644434058,-0.633685669700175));
#368=CARTESIAN_POINT('Ctrl Pts',(0.738471408448938,-0.081624316451581,-0.65));
#369=CARTESIAN_POINT('Ctrl Pts',(0.738471408448941,0.0816243164515808,-0.65));
#370=CARTESIAN_POINT('Ctrl Pts',(0.737810489521308,0.168683644434058,-0.633685669700175));
#371=CARTESIAN_POINT('Ctrl Pts',(0.735421212219846,0.328827771091786,-0.567348214676728));
#372=CARTESIAN_POINT('Ctrl Pts',(0.733727053027637,0.40191326780646,-0.517325547736051));
#373=CARTESIAN_POINT('Ctrl Pts',(0.730544690941315,0.517325552235097,-0.401913263307415));
#374=CARTESIAN_POINT('Ctrl Pts',(0.728849969842921,0.567348215951834,-0.328827768709647));
#375=CARTESIAN_POINT('Ctrl Pts',(0.7264594078417,0.633685667764062,-0.168683648411923));
#376=CARTESIAN_POINT('Ctrl Pts',(0.725797926675629,0.65,-0.0816243228154016));
#377=CARTESIAN_POINT('Ctrl Pts',(0.725797926675629,0.65,2.77555756156289E-17));
#378=CARTESIAN_POINT('Origin',(0.95,-2.00000002235174,0.));
#379=CARTESIAN_POINT('',(0.95,-2.22500002235174,-2.75545529808155E-17));
#380=CARTESIAN_POINT('Origin',(0.95,-2.00000002235174,0.));
#381=CARTESIAN_POINT('',(0.589360186379564,-2.22500002235174,2.75545529808155E-17));
#382=CARTESIAN_POINT('',(0.95,-2.22500002235174,2.75545529808155E-17));
#383=CARTESIAN_POINT('',(0.643730752640459,-1.77500002235174,2.08166817117217E-17));
#384=CARTESIAN_POINT('Ctrl Pts',(0.643730752640459,-1.77500002235174,2.08166817117217E-17));
#385=CARTESIAN_POINT('Ctrl Pts',(0.643730752640459,-1.77500002235174,0.028239378412826));
#386=CARTESIAN_POINT('Ctrl Pts',(0.643129739551592,-1.78064240382721,0.0583499739507057));
#387=CARTESIAN_POINT('Ctrl Pts',(0.640653246058645,-1.80355207003413,0.113713175086594));
#388=CARTESIAN_POINT('Ctrl Pts',(0.638773680531275,-1.82081843097015,0.138965980143234));
#389=CARTESIAN_POINT('Ctrl Pts',(0.634340799440698,-1.8607307136547,0.17897909112649));
#390=CARTESIAN_POINT('Ctrl Pts',(0.631484849288037,-1.8860902226577,0.196347495081603));
#391=CARTESIAN_POINT('Ctrl Pts',(0.625071063547667,-1.94160309231156,0.219357196843203));
#392=CARTESIAN_POINT('Ctrl Pts',(0.621509190602713,-1.97175536245231,0.225));
#393=CARTESIAN_POINT('Ctrl Pts',(0.614680236402925,-2.02828075143252,0.225));
#394=CARTESIAN_POINT('Ctrl Pts',(0.610954379317566,-2.05844972126304,0.219344285204208));
#395=CARTESIAN_POINT('Ctrl Pts',(0.603953014278704,-2.11397165860108,0.196312885047217));
#396=CARTESIAN_POINT('Ctrl Pts',(0.600681639190802,-2.13932481551726,0.17893640012859));
#397=CARTESIAN_POINT('Ctrl Pts',(0.595473340071625,-2.17920583625234,0.138928840289743));
#398=CARTESIAN_POINT('Ctrl Pts',(0.593181936507336,-2.1964581206512,0.113692526106154));
#399=CARTESIAN_POINT('Ctrl Pts',(0.59012313772028,-2.21935599592807,0.0583500780071181));
#400=CARTESIAN_POINT('Ctrl Pts',(0.589360186379564,-2.22500002235174,0.0282430512892219));
#401=CARTESIAN_POINT('Ctrl Pts',(0.589360186379564,-2.22500002235174,-3.46944695195361E-17));
#402=CARTESIAN_POINT('Ctrl Pts',(0.589360186379564,-2.22500002235174,1.38777878078145E-17));
#403=CARTESIAN_POINT('Ctrl Pts',(0.589360186379564,-2.22500002235174,-0.0282430512892219));
#404=CARTESIAN_POINT('Ctrl Pts',(0.59012313772028,-2.21935599592807,-0.0583500780071181));
#405=CARTESIAN_POINT('Ctrl Pts',(0.593181936507336,-2.1964581206512,-0.113692526106154));
#406=CARTESIAN_POINT('Ctrl Pts',(0.595473340071625,-2.17920583625234,-0.138928840289743));
#407=CARTESIAN_POINT('Ctrl Pts',(0.600681639190802,-2.13932481551726,-0.17893640012859));
#408=CARTESIAN_POINT('Ctrl Pts',(0.603953014278704,-2.11397165860108,-0.196312885047217));
#409=CARTESIAN_POINT('Ctrl Pts',(0.610954379317566,-2.05844972126304,-0.219344285204208));
#410=CARTESIAN_POINT('Ctrl Pts',(0.614680236402925,-2.02828075143252,-0.225));
#411=CARTESIAN_POINT('Ctrl Pts',(0.621509190602713,-1.97175536245231,-0.225));
#412=CARTESIAN_POINT('Ctrl Pts',(0.625071063547667,-1.94160309231156,-0.219357196843203));
#413=CARTESIAN_POINT('Ctrl Pts',(0.631484849288037,-1.8860902226577,-0.196347495081603));
#414=CARTESIAN_POINT('Ctrl Pts',(0.634340799440698,-1.8607307136547,-0.17897909112649));
#415=CARTESIAN_POINT('Ctrl Pts',(0.638773680531275,-1.82081843097015,-0.138965980143234));
#416=CARTESIAN_POINT('Ctrl Pts',(0.640653246058645,-1.80355207003413,-0.113713175086594));
#417=CARTESIAN_POINT('Ctrl Pts',(0.643129739551592,-1.78064240382721,-0.0583499739507056));
#418=CARTESIAN_POINT('Ctrl Pts',(0.643730752640459,-1.77500002235174,-0.0282393784128259));
#419=CARTESIAN_POINT('Ctrl Pts',(0.643730752640459,-1.77500002235174,0.));
#420=CARTESIAN_POINT('Origin',(0.95,1.99999997764826,0.));
#421=CARTESIAN_POINT('',(0.95,1.77499997764826,-2.75545529808155E-17));
#422=CARTESIAN_POINT('Origin',(0.95,1.99999997764826,0.));
#423=CARTESIAN_POINT('',(0.643730757426257,1.77499997764826,1.72467234423613E-17));
#424=CARTESIAN_POINT('',(0.95,1.77499997764826,2.75545529808155E-17));
#425=CARTESIAN_POINT('',(0.589360192398401,2.22499997764826,-4.16333634234434E-17));
#426=CARTESIAN_POINT('Ctrl Pts',(0.589360192398401,2.22499997764826,-4.16333634234434E-17));
#427=CARTESIAN_POINT('Ctrl Pts',(0.589360192398401,2.22499997764826,0.0282430512896546));
#428=CARTESIAN_POINT('Ctrl Pts',(0.590123143723584,2.21935595122447,0.0583500780087625));
#429=CARTESIAN_POINT('Ctrl Pts',(0.593181942447971,2.19645807594483,0.113692526111756));
#430=CARTESIAN_POINT('Ctrl Pts',(0.595473345965138,2.17920579154326,0.138928840298059));
#431=CARTESIAN_POINT('Ctrl Pts',(0.600681644975002,2.13932477080528,0.17893640013439));
#432=CARTESIAN_POINT('Ctrl Pts',(0.603953019992909,2.11397161389154,0.196312885050382));
#433=CARTESIAN_POINT('Ctrl Pts',(0.610954384878865,2.05844967655729,0.219344285204495));
#434=CARTESIAN_POINT('Ctrl Pts',(0.614680241881318,2.02828070672813,0.225));
#435=CARTESIAN_POINT('Ctrl Pts',(0.621509195926119,1.97175531774891,0.225));
#436=CARTESIAN_POINT('Ctrl Pts',(0.625071068788421,1.94160304760912,0.219357196843191));
#437=CARTESIAN_POINT('Ctrl Pts',(0.631484854376571,1.88609017795885,0.196347495083967));
#438=CARTESIAN_POINT('Ctrl Pts',(0.634340804459668,1.86073066895844,0.178979091131303));
#439=CARTESIAN_POINT('Ctrl Pts',(0.638773685441523,1.82081838627171,0.138965980150693));
#440=CARTESIAN_POINT('Ctrl Pts',(0.640653250922038,1.80355202533329,0.113713175091721));
#441=CARTESIAN_POINT('Ctrl Pts',(0.643129744352759,1.78064235912388,0.058349973952356));
#442=CARTESIAN_POINT('Ctrl Pts',(0.643730757426257,1.77499997764826,0.0282393784133474));
#443=CARTESIAN_POINT('Ctrl Pts',(0.643730757426257,1.77499997764826,-1.38777878078145E-17));
#444=CARTESIAN_POINT('Ctrl Pts',(0.643730757426257,1.77499997764826,6.93889390390723E-18));
#445=CARTESIAN_POINT('Ctrl Pts',(0.643730757426257,1.77499997764826,-0.0282393784133474));
#446=CARTESIAN_POINT('Ctrl Pts',(0.643129744352759,1.78064235912388,-0.0583499739523559));
#447=CARTESIAN_POINT('Ctrl Pts',(0.640653250922038,1.80355202533329,-0.113713175091721));
#448=CARTESIAN_POINT('Ctrl Pts',(0.638773685441523,1.82081838627171,-0.138965980150693));
#449=CARTESIAN_POINT('Ctrl Pts',(0.634340804459668,1.86073066895844,-0.178979091131303));
#450=CARTESIAN_POINT('Ctrl Pts',(0.631484854376571,1.88609017795885,-0.196347495083967));
#451=CARTESIAN_POINT('Ctrl Pts',(0.625071068788421,1.94160304760912,-0.219357196843191));
#452=CARTESIAN_POINT('Ctrl Pts',(0.621509195926119,1.97175531774891,-0.225));
#453=CARTESIAN_POINT('Ctrl Pts',(0.614680241881318,2.02828070672813,-0.225));
#454=CARTESIAN_POINT('Ctrl Pts',(0.610954384878865,2.05844967655729,-0.219344285204495));
#455=CARTESIAN_POINT('Ctrl Pts',(0.603953019992909,2.11397161389154,-0.196312885050382));
#456=CARTESIAN_POINT('Ctrl Pts',(0.600681644975002,2.13932477080528,-0.17893640013439));
#457=CARTESIAN_POINT('Ctrl Pts',(0.595473345965138,2.17920579154326,-0.138928840298059));
#458=CARTESIAN_POINT('Ctrl Pts',(0.593181942447971,2.19645807594483,-0.113692526111757));
#459=CARTESIAN_POINT('Ctrl Pts',(0.590123143723584,2.21935595122447,-0.0583500780087627));
#460=CARTESIAN_POINT('Ctrl Pts',(0.589360192398401,2.22499997764826,-0.0282430512896546));
#461=CARTESIAN_POINT('Ctrl Pts',(0.589360192398401,2.22499997764826,0.));
#462=CARTESIAN_POINT('Origin',(-15.9365285915511,3.07797114343976E-13,1.));
#463=CARTESIAN_POINT('',(0.55,-2.5,-1.));
#464=CARTESIAN_POINT('',(0.55,2.5,-1.));
#465=CARTESIAN_POINT('Origin',(-15.9365285915511,3.07797114343976E-13,-1.));
#466=CARTESIAN_POINT('',(0.55,-2.5,1.));
#467=CARTESIAN_POINT('',(0.55,-2.5,1.));
#468=CARTESIAN_POINT('',(0.55,2.5,1.));
#469=CARTESIAN_POINT('Origin',(-15.9365285915511,3.07797114343976E-13,1.));
#470=CARTESIAN_POINT('',(0.55,2.5,-1.));
#471=CARTESIAN_POINT('',(0.711955573681503,-0.94,2.77555756156289E-17));
#472=CARTESIAN_POINT('Ctrl Pts',(0.711955573681503,-0.94,2.77555756156289E-17));
#473=CARTESIAN_POINT('Ctrl Pts',(0.711955573681503,-0.94,-0.118055362281206));
#474=CARTESIAN_POINT('Ctrl Pts',(0.713340495470045,-0.9164014843129,-0.243962576993501));
#475=CARTESIAN_POINT('Ctrl Pts',(0.718343738503815,-0.820463260479186,-0.475551744127573));
#476=CARTESIAN_POINT('Ctrl Pts',(0.721889945781011,-0.748124929322459,-0.581235819308251));
#477=CARTESIAN_POINT('Ctrl Pts',(0.728547584670363,-0.581235847807103,-0.748124900823607));
#478=CARTESIAN_POINT('Ctrl Pts',(0.732091332073413,-0.475551759747641,-0.820463253538591));
#479=CARTESIAN_POINT('Ctrl Pts',(0.737088949579324,-0.243962551365417,-0.916401495399421));
#480=CARTESIAN_POINT('Ctrl Pts',(0.738471408448937,-0.118055321961712,-0.94));
#481=CARTESIAN_POINT('Ctrl Pts',(0.738471408448941,0.118055321961712,-0.94));
#482=CARTESIAN_POINT('Ctrl Pts',(0.737088949579334,0.243962551365417,-0.916401495399421));
#483=CARTESIAN_POINT('Ctrl Pts',(0.732091332073431,0.475551759747641,-0.820463253538591));
#484=CARTESIAN_POINT('Ctrl Pts',(0.728547584670385,0.581235847807102,-0.748124900823607));
#485=CARTESIAN_POINT('Ctrl Pts',(0.721889945781039,0.748124929322458,-0.581235819308252));
#486=CARTESIAN_POINT('Ctrl Pts',(0.718343738503845,0.820463260479186,-0.475551744127574));
#487=CARTESIAN_POINT('Ctrl Pts',(0.713340495470079,0.9164014843129,-0.243962576993502));
#488=CARTESIAN_POINT('Ctrl Pts',(0.711955573681538,0.94,-0.118055362281207));
#489=CARTESIAN_POINT('Ctrl Pts',(0.711955573681538,0.94,0.118055362281206));
#490=CARTESIAN_POINT('Ctrl Pts',(0.713340495470079,0.9164014843129,0.243962576993501));
#491=CARTESIAN_POINT('Ctrl Pts',(0.718343738503845,0.820463260479186,0.475551744127574));
#492=CARTESIAN_POINT('Ctrl Pts',(0.721889945781039,0.748124929322459,0.581235819308251));
#493=CARTESIAN_POINT('Ctrl Pts',(0.728547584670385,0.581235847807103,0.748124900823607));
#494=CARTESIAN_POINT('Ctrl Pts',(0.732091332073431,0.475551759747641,0.820463253538591));
#495=CARTESIAN_POINT('Ctrl Pts',(0.737088949579334,0.243962551365417,0.916401495399421));
#496=CARTESIAN_POINT('Ctrl Pts',(0.738471408448941,0.118055321961712,0.94));
#497=CARTESIAN_POINT('Ctrl Pts',(0.738471408448937,-0.118055321961712,0.94));
#498=CARTESIAN_POINT('Ctrl Pts',(0.737088949579324,-0.243962551365416,0.916401495399421));
#499=CARTESIAN_POINT('Ctrl Pts',(0.732091332073413,-0.47555175974764,0.820463253538591));
#500=CARTESIAN_POINT('Ctrl Pts',(0.728547584670363,-0.581235847807102,0.748124900823607));
#501=CARTESIAN_POINT('Ctrl Pts',(0.721889945781011,-0.748124929322458,0.581235819308252));
#502=CARTESIAN_POINT('Ctrl Pts',(0.718343738503815,-0.820463260479186,0.475551744127574));
#503=CARTESIAN_POINT('Ctrl Pts',(0.713340495470045,-0.9164014843129,0.243962576993502));
#504=CARTESIAN_POINT('Ctrl Pts',(0.711955573681503,-0.94,0.118055362281207));
#505=CARTESIAN_POINT('Ctrl Pts',(0.711955573681503,-0.94,2.77555756156289E-17));
#506=CARTESIAN_POINT('Origin',(-15.9365285915511,3.07797114343976E-13,1.));
#507=CARTESIAN_POINT('',(0.721596302926094,-0.75,2.77555756156289E-17));
#508=CARTESIAN_POINT('Ctrl Pts',(0.721596302926094,-0.75,2.77555756156289E-17));
#509=CARTESIAN_POINT('Ctrl Pts',(0.721596302926094,-0.75,0.0941853078571814));
#510=CARTESIAN_POINT('Ctrl Pts',(0.722477267770313,-0.731174443505729,0.194639838204766));
#511=CARTESIAN_POINT('Ctrl Pts',(0.725660686214832,-0.654630245528794,0.379420580087533));
#512=CARTESIAN_POINT('Ctrl Pts',(0.727917345283837,-0.59691230406598,0.463747867713841));
#513=CARTESIAN_POINT('Ctrl Pts',(0.732154637362499,-0.463747876919449,0.596912294860372));
#514=CARTESIAN_POINT('Ctrl Pts',(0.734410300168161,-0.379420585042599,0.654630243095346));
#515=CARTESIAN_POINT('Ctrl Pts',(0.737591440652494,-0.194639829998404,0.731174447286005));
#516=CARTESIAN_POINT('Ctrl Pts',(0.738471408448937,-0.0941852948351903,
0.75));
#517=CARTESIAN_POINT('Ctrl Pts',(0.738471408448941,0.0941852948351903,0.75));
#518=CARTESIAN_POINT('Ctrl Pts',(0.737591440652502,0.194639829998404,0.731174447286005));
#519=CARTESIAN_POINT('Ctrl Pts',(0.734410300168175,0.379420585042599,0.654630243095346));
#520=CARTESIAN_POINT('Ctrl Pts',(0.732154637362518,0.463747876919449,0.596912294860372));
#521=CARTESIAN_POINT('Ctrl Pts',(0.727917345283861,0.59691230406598,0.463747867713841));
#522=CARTESIAN_POINT('Ctrl Pts',(0.725660686214855,0.654630245528794,0.379420580087533));
#523=CARTESIAN_POINT('Ctrl Pts',(0.722477267770339,0.731174443505729,0.194639838204766));
#524=CARTESIAN_POINT('Ctrl Pts',(0.721596302926121,0.75,0.0941853078571813));
#525=CARTESIAN_POINT('Ctrl Pts',(0.721596302926121,0.75,-0.0941853078571813));
#526=CARTESIAN_POINT('Ctrl Pts',(0.722477267770339,0.731174443505729,-0.194639838204766));
#527=CARTESIAN_POINT('Ctrl Pts',(0.725660686214855,0.654630245528794,-0.379420580087533));
#528=CARTESIAN_POINT('Ctrl Pts',(0.727917345283861,0.59691230406598,-0.463747867713841));
#529=CARTESIAN_POINT('Ctrl Pts',(0.732154637362518,0.463747876919449,-0.596912294860372));
#530=CARTESIAN_POINT('Ctrl Pts',(0.734410300168175,0.379420585042599,-0.654630243095346));
#531=CARTESIAN_POINT('Ctrl Pts',(0.737591440652502,0.194639829998404,-0.731174447286005));
#532=CARTESIAN_POINT('Ctrl Pts',(0.738471408448941,0.0941852948351902,-0.75));
#533=CARTESIAN_POINT('Ctrl Pts',(0.738471408448937,-0.0941852948351904,
-0.75));
#534=CARTESIAN_POINT('Ctrl Pts',(0.737591440652494,-0.194639829998404,-0.731174447286005));
#535=CARTESIAN_POINT('Ctrl Pts',(0.734410300168161,-0.379420585042599,-0.654630243095346));
#536=CARTESIAN_POINT('Ctrl Pts',(0.732154637362499,-0.463747876919449,-0.596912294860372));
#537=CARTESIAN_POINT('Ctrl Pts',(0.727917345283837,-0.59691230406598,-0.463747867713841));
#538=CARTESIAN_POINT('Ctrl Pts',(0.725660686214832,-0.654630245528794,-0.379420580087533));
#539=CARTESIAN_POINT('Ctrl Pts',(0.722477267770313,-0.731174443505729,-0.194639838204766));
#540=CARTESIAN_POINT('Ctrl Pts',(0.721596302926094,-0.75,-0.0941853078571813));
#541=CARTESIAN_POINT('Ctrl Pts',(0.721596302926094,-0.75,-5.55111512312578E-17));
#542=CARTESIAN_POINT('Origin',(0.55,2.5,1.));
#543=CARTESIAN_POINT('',(0.95,-2.5,1.));
#544=CARTESIAN_POINT('',(0.55,-2.5,1.));
#545=CARTESIAN_POINT('',(0.95,2.5,1.));
#546=CARTESIAN_POINT('',(0.95,2.5,1.));
#547=CARTESIAN_POINT('',(0.55,2.5,1.));
#548=CARTESIAN_POINT('Origin',(0.55,-2.5,-1.));
#549=CARTESIAN_POINT('',(0.95,2.5,-1.));
#550=CARTESIAN_POINT('',(0.55,2.5,-1.));
#551=CARTESIAN_POINT('',(0.95,-2.5,-1.));
#552=CARTESIAN_POINT('',(0.95,-2.5,-1.));
#553=CARTESIAN_POINT('',(0.55,-2.5,-1.));
#554=CARTESIAN_POINT('Origin',(0.55,-2.5,1.));
#555=CARTESIAN_POINT('',(0.95,-2.5,1.));
#556=CARTESIAN_POINT('Origin',(0.55,2.5,-1.));
#557=CARTESIAN_POINT('',(0.95,2.5,-1.));
#558=CARTESIAN_POINT('Origin',(0.95,-4.44089209850063E-16,-2.22044604925031E-16));
#559=CARTESIAN_POINT('Origin',(0.,0.,0.));
#560=CARTESIAN_POINT('',(0.,-0.94,-1.15116799119851E-16));
#561=CARTESIAN_POINT('Origin',(0.,0.,0.));
#562=CARTESIAN_POINT('',(0.,-0.75,-9.18485099360515E-17));
#563=UNCERTAINTY_MEASURE_WITH_UNIT(LENGTH_MEASURE(0.001),#567,
'DISTANCE_ACCURACY_VALUE',
'Maximum model space distance between geometric entities at asserted c
onnectivities');
#564=UNCERTAINTY_MEASURE_WITH_UNIT(LENGTH_MEASURE(0.001),#567,
'DISTANCE_ACCURACY_VALUE',
'Maximum model space distance between geometric entities at asserted c
onnectivities');
#565=(
GEOMETRIC_REPRESENTATION_CONTEXT(3)
GLOBAL_UNCERTAINTY_ASSIGNED_CONTEXT((#563))
GLOBAL_UNIT_ASSIGNED_CONTEXT((#567,#569,#570))
REPRESENTATION_CONTEXT('','3D')
);
#566=(
GEOMETRIC_REPRESENTATION_CONTEXT(3)
GLOBAL_UNCERTAINTY_ASSIGNED_CONTEXT((#564))
GLOBAL_UNIT_ASSIGNED_CONTEXT((#567,#569,#570))
REPRESENTATION_CONTEXT('','3D')
);
#567=(
LENGTH_UNIT()
NAMED_UNIT(*)
SI_UNIT(.CENTI.,.METRE.)
);
#568=(
LENGTH_UNIT()
NAMED_UNIT(*)
SI_UNIT($,.METRE.)
);
#569=(
NAMED_UNIT(*)
PLANE_ANGLE_UNIT()
SI_UNIT($,.RADIAN.)
);
#570=(
NAMED_UNIT(*)
SI_UNIT($,.STERADIAN.)
SOLID_ANGLE_UNIT()
);
#571=SHAPE_DEFINITION_REPRESENTATION(#572,#573);
#572=PRODUCT_DEFINITION_SHAPE('',$,#575);
#573=SHAPE_REPRESENTATION('',(#252),#565);
#574=PRODUCT_DEFINITION_CONTEXT('part definition',#579,'design');
#575=PRODUCT_DEFINITION('V\X\EDko','V\X\EDko v8',#576,#574);
#576=PRODUCT_DEFINITION_FORMATION('',$,#581);
#577=PRODUCT_RELATED_PRODUCT_CATEGORY('V\X\EDko v8','V\X\EDko v8',(#581));
#578=APPLICATION_PROTOCOL_DEFINITION('international standard',
'automotive_design',2009,#579);
#579=APPLICATION_CONTEXT(
'Core Data for Automotive Mechanical Design Process');
#580=PRODUCT_CONTEXT('part definition',#579,'mechanical');
#581=PRODUCT('V\X\EDko','V\X\EDko v8',$,(#580));
#582=PRESENTATION_STYLE_ASSIGNMENT((#583));
#583=SURFACE_STYLE_USAGE(.BOTH.,#584);
#584=SURFACE_SIDE_STYLE('',(#585));
#585=SURFACE_STYLE_FILL_AREA(#586);
#586=FILL_AREA_STYLE('Steel - Satin',(#587));
#587=FILL_AREA_STYLE_COLOUR('Steel - Satin',#588);
#588=COLOUR_RGB('Steel - Satin',0.627450980392157,0.627450980392157,0.627450980392157);
ENDSEC;
END-ISO-10303-21;
