ISO-10303-21;
HEADER;
/* Generated by software containing ST-Developer
 * from STEP Tools, Inc. (www.steptools.com) 
 */

FILE_DESCRIPTION(
/* description */ (''),
/* implementation_level */ '2;1');

FILE_NAME(
/* name */ 'motor_osa.step',
/* time_stamp */ '2026-02-19T18:19:15+01:00',
/* author */ (''),
/* organization */ (''),
/* preprocessor_version */ 'ST-DEVELOPER v20.1',
/* originating_system */ 'Autodesk Translation Framework v14.24.0.0',
/* authorisation */ '');

FILE_SCHEMA (('AUTOMOTIVE_DESIGN { 1 0 10303 214 3 1 1 }'));
ENDSEC;

DATA;
#10=MECHANICAL_DESIGN_GEOMETRIC_PRESENTATION_REPRESENTATION('',(#17),#460);
#11=ITEM_DEFINED_TRANSFORMATION($,$,#234,#258);
#12=(
REPRESENTATION_RELATIONSHIP($,$,#471,#470)
REPRESENTATION_RELATIONSHIP_WITH_TRANSFORMATION(#11)
SHAPE_REPRESENTATION_RELATIONSHIP()
);
#13=CONTEXT_DEPENDENT_SHAPE_REPRESENTATION(#12,#469);
#14=NEXT_ASSEMBLY_USAGE_OCCURRENCE('Component1:1','Component1:1',
'Component1:1',#473,#474,'Component1:1');
#15=SHAPE_REPRESENTATION_RELATIONSHIP('SRR','None',#471,#16);
#16=ADVANCED_BREP_SHAPE_REPRESENTATION('',(#18),#459);
#17=STYLED_ITEM('',(#484),#18);
#18=MANIFOLD_SOLID_BREP('Body1',#220);
#19=B_SPLINE_CURVE_WITH_KNOTS('',3,(#368,#369,#370,#371,#372,#373,#374,
#375,#376,#377,#378,#379,#380,#381,#382,#383,#384,#385,#386,#387,#388,#389,
#390,#391,#392,#393),.UNSPECIFIED.,.F.,.F.,(4,2,2,2,2,2,2,2,2,2,2,2,4),
(0.,0.0645423479295382,0.129084695859076,0.193340332409791,0.257595968960505,
0.321851605511219,0.386107242061933,0.450649589991471,0.515191937921009,
0.579734285850547,0.644276633780086,0.7085322703308,0.772787906881514),
 .UNSPECIFIED.);
#20=B_SPLINE_CURVE_WITH_KNOTS('',3,(#394,#395,#396,#397,#398,#399,#400,
#401,#402,#403),.UNSPECIFIED.,.F.,.F.,(4,2,2,2,4),(0.772787906881514,0.837043543432228,
0.901299179982942,0.96584152791248,1.03038387584202),.UNSPECIFIED.);
#21=B_SPLINE_CURVE_WITH_KNOTS('',3,(#407,#408,#409,#410,#411,#412,#413,
#414,#415,#416),.UNSPECIFIED.,.F.,.F.,(4,2,2,2,4),(0.,0.0632972297175474,
0.126594459435095,0.189862381434173,0.25313030343325),.UNSPECIFIED.);
#22=B_SPLINE_CURVE_WITH_KNOTS('',3,(#417,#418,#419,#420,#421,#422,#423,
#424,#425,#426,#427,#428,#429,#430,#431,#432,#433,#434,#435,#436,#437,#438,
#439,#440,#441,#442),.UNSPECIFIED.,.F.,.F.,(4,2,2,2,2,2,2,2,2,2,2,2,4),
(0.25313030343325,0.316398225432328,0.379666147431406,0.442963377148954,
0.506260606866501,0.569557836584048,0.632855066301596,0.696122988300674,
0.759390910299752,0.82265883229883,0.885926754297907,0.949223984015455,
1.012521213733),.UNSPECIFIED.);
#23=FACE_BOUND('',#50,.T.);
#24=FACE_BOUND('',#55,.T.);
#25=FACE_BOUND('',#57,.T.);
#26=FACE_BOUND('',#59,.T.);
#27=CONICAL_SURFACE('',#245,0.15,1.02974425867665);
#28=CYLINDRICAL_SURFACE('',#243,0.3);
#29=CYLINDRICAL_SURFACE('',#250,0.1666);
#30=CYLINDRICAL_SURFACE('',#253,0.300000004470348);
#31=CYLINDRICAL_SURFACE('',#255,0.5);
#32=FACE_OUTER_BOUND('',#44,.T.);
#33=FACE_OUTER_BOUND('',#45,.T.);
#34=FACE_OUTER_BOUND('',#46,.T.);
#35=FACE_OUTER_BOUND('',#47,.T.);
#36=FACE_OUTER_BOUND('',#48,.T.);
#37=FACE_OUTER_BOUND('',#49,.T.);
#38=FACE_OUTER_BOUND('',#51,.T.);
#39=FACE_OUTER_BOUND('',#52,.T.);
#40=FACE_OUTER_BOUND('',#53,.T.);
#41=FACE_OUTER_BOUND('',#54,.T.);
#42=FACE_OUTER_BOUND('',#56,.T.);
#43=FACE_OUTER_BOUND('',#58,.T.);
#44=EDGE_LOOP('',(#145,#146));
#45=EDGE_LOOP('',(#147,#148));
#46=EDGE_LOOP('',(#149,#150,#151,#152,#153));
#47=EDGE_LOOP('',(#154,#155,#156,#157,#158,#159,#160,#161,#162,#163,#164,
#165));
#48=EDGE_LOOP('',(#166,#167,#168,#169));
#49=EDGE_LOOP('',(#170));
#50=EDGE_LOOP('',(#171));
#51=EDGE_LOOP('',(#172,#173,#174,#175,#176,#177));
#52=EDGE_LOOP('',(#178,#179,#180,#181));
#53=EDGE_LOOP('',(#182,#183,#184,#185));
#54=EDGE_LOOP('',(#186,#187,#188,#189,#190));
#55=EDGE_LOOP('',(#191,#192));
#56=EDGE_LOOP('',(#193,#194,#195,#196));
#57=EDGE_LOOP('',(#197,#198));
#58=EDGE_LOOP('',(#199));
#59=EDGE_LOOP('',(#200));
#60=CIRCLE('',#236,0.3);
#61=CIRCLE('',#238,0.3);
#62=CIRCLE('',#240,0.3);
#63=CIRCLE('',#241,0.3);
#64=CIRCLE('',#242,0.3);
#65=CIRCLE('',#244,0.3);
#66=CIRCLE('',#246,0.300000004470348);
#67=CIRCLE('',#247,0.300000004470348);
#68=CIRCLE('',#249,0.500000007450581);
#69=CIRCLE('',#254,0.300000004470348);
#70=CIRCLE('',#256,0.5);
#71=LINE('',#329,#84);
#72=LINE('',#334,#85);
#73=LINE('',#343,#86);
#74=LINE('',#346,#87);
#75=LINE('',#348,#88);
#76=LINE('',#349,#89);
#77=LINE('',#350,#90);
#78=LINE('',#352,#91);
#79=LINE('',#354,#92);
#80=LINE('',#360,#93);
#81=LINE('',#405,#94);
#82=LINE('',#447,#95);
#83=LINE('',#451,#96);
#84=VECTOR('',#265,1.);
#85=VECTOR('',#270,1.);
#86=VECTOR('',#279,1.);
#87=VECTOR('',#282,1.);
#88=VECTOR('',#285,1.);
#89=VECTOR('',#286,1.);
#90=VECTOR('',#287,1.);
#91=VECTOR('',#288,0.3);
#92=VECTOR('',#291,1.);
#93=VECTOR('',#296,0.15);
#94=VECTOR('',#305,0.1666);
#95=VECTOR('',#312,0.300000004470348);
#96=VECTOR('',#317,0.5);
#97=VERTEX_POINT('',#327);
#98=VERTEX_POINT('',#328);
#99=VERTEX_POINT('',#332);
#100=VERTEX_POINT('',#333);
#101=VERTEX_POINT('',#337);
#102=VERTEX_POINT('',#338);
#103=VERTEX_POINT('',#340);
#104=VERTEX_POINT('',#342);
#105=VERTEX_POINT('',#344);
#106=VERTEX_POINT('',#351);
#107=VERTEX_POINT('',#356);
#108=VERTEX_POINT('',#357);
#109=VERTEX_POINT('',#359);
#110=VERTEX_POINT('',#363);
#111=VERTEX_POINT('',#366);
#112=VERTEX_POINT('',#367);
#113=VERTEX_POINT('',#404);
#114=VERTEX_POINT('',#406);
#115=VERTEX_POINT('',#446);
#116=VERTEX_POINT('',#450);
#117=EDGE_CURVE('',#97,#98,#71,.T.);
#118=EDGE_CURVE('',#98,#97,#60,.T.);
#119=EDGE_CURVE('',#99,#100,#72,.T.);
#120=EDGE_CURVE('',#100,#99,#61,.T.);
#121=EDGE_CURVE('',#101,#102,#62,.T.);
#122=EDGE_CURVE('',#102,#103,#63,.T.);
#123=EDGE_CURVE('',#103,#104,#73,.T.);
#124=EDGE_CURVE('',#104,#105,#64,.T.);
#125=EDGE_CURVE('',#105,#101,#74,.T.);
#126=EDGE_CURVE('',#97,#105,#75,.T.);
#127=EDGE_CURVE('',#104,#100,#76,.T.);
#128=EDGE_CURVE('',#99,#103,#77,.T.);
#129=EDGE_CURVE('',#102,#106,#78,.T.);
#130=EDGE_CURVE('',#106,#106,#65,.T.);
#131=EDGE_CURVE('',#101,#98,#79,.T.);
#132=EDGE_CURVE('',#107,#108,#66,.T.);
#133=EDGE_CURVE('',#108,#109,#80,.T.);
#134=EDGE_CURVE('',#108,#107,#67,.T.);
#135=EDGE_CURVE('',#110,#110,#68,.T.);
#136=EDGE_CURVE('',#111,#112,#19,.T.);
#137=EDGE_CURVE('',#112,#111,#20,.T.);
#138=EDGE_CURVE('',#112,#113,#81,.T.);
#139=EDGE_CURVE('',#114,#113,#21,.T.);
#140=EDGE_CURVE('',#113,#114,#22,.T.);
#141=EDGE_CURVE('',#107,#115,#82,.T.);
#142=EDGE_CURVE('',#115,#115,#69,.T.);
#143=EDGE_CURVE('',#110,#116,#83,.T.);
#144=EDGE_CURVE('',#116,#116,#70,.T.);
#145=ORIENTED_EDGE('',*,*,#117,.F.);
#146=ORIENTED_EDGE('',*,*,#118,.F.);
#147=ORIENTED_EDGE('',*,*,#119,.F.);
#148=ORIENTED_EDGE('',*,*,#120,.F.);
#149=ORIENTED_EDGE('',*,*,#121,.T.);
#150=ORIENTED_EDGE('',*,*,#122,.T.);
#151=ORIENTED_EDGE('',*,*,#123,.T.);
#152=ORIENTED_EDGE('',*,*,#124,.T.);
#153=ORIENTED_EDGE('',*,*,#125,.T.);
#154=ORIENTED_EDGE('',*,*,#126,.T.);
#155=ORIENTED_EDGE('',*,*,#124,.F.);
#156=ORIENTED_EDGE('',*,*,#127,.T.);
#157=ORIENTED_EDGE('',*,*,#120,.T.);
#158=ORIENTED_EDGE('',*,*,#128,.T.);
#159=ORIENTED_EDGE('',*,*,#122,.F.);
#160=ORIENTED_EDGE('',*,*,#129,.T.);
#161=ORIENTED_EDGE('',*,*,#130,.T.);
#162=ORIENTED_EDGE('',*,*,#129,.F.);
#163=ORIENTED_EDGE('',*,*,#121,.F.);
#164=ORIENTED_EDGE('',*,*,#131,.T.);
#165=ORIENTED_EDGE('',*,*,#118,.T.);
#166=ORIENTED_EDGE('',*,*,#132,.T.);
#167=ORIENTED_EDGE('',*,*,#133,.T.);
#168=ORIENTED_EDGE('',*,*,#133,.F.);
#169=ORIENTED_EDGE('',*,*,#134,.T.);
#170=ORIENTED_EDGE('',*,*,#135,.T.);
#171=ORIENTED_EDGE('',*,*,#130,.F.);
#172=ORIENTED_EDGE('',*,*,#136,.F.);
#173=ORIENTED_EDGE('',*,*,#137,.F.);
#174=ORIENTED_EDGE('',*,*,#138,.T.);
#175=ORIENTED_EDGE('',*,*,#139,.F.);
#176=ORIENTED_EDGE('',*,*,#140,.F.);
#177=ORIENTED_EDGE('',*,*,#138,.F.);
#178=ORIENTED_EDGE('',*,*,#131,.F.);
#179=ORIENTED_EDGE('',*,*,#125,.F.);
#180=ORIENTED_EDGE('',*,*,#126,.F.);
#181=ORIENTED_EDGE('',*,*,#117,.T.);
#182=ORIENTED_EDGE('',*,*,#127,.F.);
#183=ORIENTED_EDGE('',*,*,#123,.F.);
#184=ORIENTED_EDGE('',*,*,#128,.F.);
#185=ORIENTED_EDGE('',*,*,#119,.T.);
#186=ORIENTED_EDGE('',*,*,#132,.F.);
#187=ORIENTED_EDGE('',*,*,#141,.T.);
#188=ORIENTED_EDGE('',*,*,#142,.T.);
#189=ORIENTED_EDGE('',*,*,#141,.F.);
#190=ORIENTED_EDGE('',*,*,#134,.F.);
#191=ORIENTED_EDGE('',*,*,#136,.T.);
#192=ORIENTED_EDGE('',*,*,#137,.T.);
#193=ORIENTED_EDGE('',*,*,#135,.F.);
#194=ORIENTED_EDGE('',*,*,#143,.T.);
#195=ORIENTED_EDGE('',*,*,#144,.T.);
#196=ORIENTED_EDGE('',*,*,#143,.F.);
#197=ORIENTED_EDGE('',*,*,#139,.T.);
#198=ORIENTED_EDGE('',*,*,#140,.T.);
#199=ORIENTED_EDGE('',*,*,#144,.F.);
#200=ORIENTED_EDGE('',*,*,#142,.F.);
#201=PLANE('',#235);
#202=PLANE('',#237);
#203=PLANE('',#239);
#204=PLANE('',#248);
#205=PLANE('',#251);
#206=PLANE('',#252);
#207=PLANE('',#257);
#208=ADVANCED_FACE('',(#32),#201,.T.);
#209=ADVANCED_FACE('',(#33),#202,.T.);
#210=ADVANCED_FACE('',(#34),#203,.T.);
#211=ADVANCED_FACE('',(#35),#28,.T.);
#212=ADVANCED_FACE('',(#36),#27,.F.);
#213=ADVANCED_FACE('',(#37,#23),#204,.T.);
#214=ADVANCED_FACE('',(#38),#29,.F.);
#215=ADVANCED_FACE('',(#39),#205,.T.);
#216=ADVANCED_FACE('',(#40),#206,.T.);
#217=ADVANCED_FACE('',(#41,#24),#30,.F.);
#218=ADVANCED_FACE('',(#42,#25),#31,.T.);
#219=ADVANCED_FACE('',(#43,#26),#207,.F.);
#220=CLOSED_SHELL('',(#208,#209,#210,#211,#212,#213,#214,#215,#216,#217,
#218,#219));
#221=DERIVED_UNIT_ELEMENT(#223,1.);
#222=DERIVED_UNIT_ELEMENT(#462,-3.);
#223=(
MASS_UNIT()
NAMED_UNIT(*)
SI_UNIT(.KILO.,.GRAM.)
);
#224=DERIVED_UNIT((#221,#222));
#225=MEASURE_REPRESENTATION_ITEM('density measure',
POSITIVE_RATIO_MEASURE(7850.),#224);
#226=PROPERTY_DEFINITION_REPRESENTATION(#231,#228);
#227=PROPERTY_DEFINITION_REPRESENTATION(#232,#229);
#228=REPRESENTATION('material name',(#230),#459);
#229=REPRESENTATION('density',(#225),#459);
#230=DESCRIPTIVE_REPRESENTATION_ITEM('Steel','Steel');
#231=PROPERTY_DEFINITION('material property','material name',#474);
#232=PROPERTY_DEFINITION('material property','density of part',#474);
#233=AXIS2_PLACEMENT_3D('',#324,#259,#260);
#234=AXIS2_PLACEMENT_3D('',#325,#261,#262);
#235=AXIS2_PLACEMENT_3D('',#326,#263,#264);
#236=AXIS2_PLACEMENT_3D('',#330,#266,#267);
#237=AXIS2_PLACEMENT_3D('',#331,#268,#269);
#238=AXIS2_PLACEMENT_3D('',#335,#271,#272);
#239=AXIS2_PLACEMENT_3D('',#336,#273,#274);
#240=AXIS2_PLACEMENT_3D('',#339,#275,#276);
#241=AXIS2_PLACEMENT_3D('',#341,#277,#278);
#242=AXIS2_PLACEMENT_3D('',#345,#280,#281);
#243=AXIS2_PLACEMENT_3D('',#347,#283,#284);
#244=AXIS2_PLACEMENT_3D('',#353,#289,#290);
#245=AXIS2_PLACEMENT_3D('',#355,#292,#293);
#246=AXIS2_PLACEMENT_3D('',#358,#294,#295);
#247=AXIS2_PLACEMENT_3D('',#361,#297,#298);
#248=AXIS2_PLACEMENT_3D('',#362,#299,#300);
#249=AXIS2_PLACEMENT_3D('',#364,#301,#302);
#250=AXIS2_PLACEMENT_3D('',#365,#303,#304);
#251=AXIS2_PLACEMENT_3D('',#443,#306,#307);
#252=AXIS2_PLACEMENT_3D('',#444,#308,#309);
#253=AXIS2_PLACEMENT_3D('',#445,#310,#311);
#254=AXIS2_PLACEMENT_3D('',#448,#313,#314);
#255=AXIS2_PLACEMENT_3D('',#449,#315,#316);
#256=AXIS2_PLACEMENT_3D('',#452,#318,#319);
#257=AXIS2_PLACEMENT_3D('',#453,#320,#321);
#258=AXIS2_PLACEMENT_3D('',#454,#322,#323);
#259=DIRECTION('axis',(0.,0.,1.));
#260=DIRECTION('refdir',(1.,0.,0.));
#261=DIRECTION('axis',(0.,0.,1.));
#262=DIRECTION('refdir',(1.,0.,0.));
#263=DIRECTION('center_axis',(1.,0.,0.));
#264=DIRECTION('ref_axis',(0.,1.,0.));
#265=DIRECTION('',(0.,-1.,4.62592926927149E-17));
#266=DIRECTION('center_axis',(-1.,0.,0.));
#267=DIRECTION('ref_axis',(0.,1.,0.));
#268=DIRECTION('center_axis',(1.,0.,0.));
#269=DIRECTION('ref_axis',(0.,1.,0.));
#270=DIRECTION('',(0.,1.,0.));
#271=DIRECTION('center_axis',(-1.,0.,0.));
#272=DIRECTION('ref_axis',(0.,1.,0.));
#273=DIRECTION('center_axis',(1.,0.,0.));
#274=DIRECTION('ref_axis',(0.,1.,0.));
#275=DIRECTION('center_axis',(1.,0.,0.));
#276=DIRECTION('ref_axis',(0.,1.,0.));
#277=DIRECTION('center_axis',(1.,0.,0.));
#278=DIRECTION('ref_axis',(0.,1.,0.));
#279=DIRECTION('',(0.,1.,0.));
#280=DIRECTION('center_axis',(1.,0.,0.));
#281=DIRECTION('ref_axis',(0.,1.,0.));
#282=DIRECTION('',(0.,-1.,4.62592926927149E-17));
#283=DIRECTION('center_axis',(1.,0.,0.));
#284=DIRECTION('ref_axis',(0.,1.,0.));
#285=DIRECTION('',(1.,0.,0.));
#286=DIRECTION('',(-1.,0.,0.));
#287=DIRECTION('',(1.,0.,0.));
#288=DIRECTION('',(-1.,0.,0.));
#289=DIRECTION('center_axis',(1.,0.,0.));
#290=DIRECTION('ref_axis',(0.,1.,0.));
#291=DIRECTION('',(-1.,0.,0.));
#292=DIRECTION('center_axis',(-1.,0.,0.));
#293=DIRECTION('ref_axis',(0.,-1.,0.));
#294=DIRECTION('center_axis',(-1.,0.,0.));
#295=DIRECTION('ref_axis',(0.,1.,0.));
#296=DIRECTION('',(0.515038074910054,-0.857167300702112,-1.04972719113862E-16));
#297=DIRECTION('center_axis',(-1.,0.,0.));
#298=DIRECTION('ref_axis',(0.,1.,0.));
#299=DIRECTION('center_axis',(1.,0.,0.));
#300=DIRECTION('ref_axis',(0.,1.,0.));
#301=DIRECTION('center_axis',(1.,0.,0.));
#302=DIRECTION('ref_axis',(0.,1.,0.));
#303=DIRECTION('center_axis',(0.,0.,-1.));
#304=DIRECTION('ref_axis',(1.,0.,0.));
#305=DIRECTION('',(0.,0.,-1.));
#306=DIRECTION('center_axis',(0.,4.62592926927149E-17,1.));
#307=DIRECTION('ref_axis',(0.,-1.,4.62592926927149E-17));
#308=DIRECTION('center_axis',(0.,0.,-1.));
#309=DIRECTION('ref_axis',(0.,1.,0.));
#310=DIRECTION('center_axis',(1.,0.,0.));
#311=DIRECTION('ref_axis',(0.,1.,0.));
#312=DIRECTION('',(-1.,0.,0.));
#313=DIRECTION('center_axis',(-1.,0.,0.));
#314=DIRECTION('ref_axis',(0.,1.,0.));
#315=DIRECTION('center_axis',(1.,0.,0.));
#316=DIRECTION('ref_axis',(0.,1.,0.));
#317=DIRECTION('',(-1.,0.,0.));
#318=DIRECTION('center_axis',(1.,0.,0.));
#319=DIRECTION('ref_axis',(0.,1.,0.));
#320=DIRECTION('center_axis',(1.,0.,0.));
#321=DIRECTION('ref_axis',(0.,1.,0.));
#322=DIRECTION('',(0.,0.,1.));
#323=DIRECTION('',(1.,0.,0.));
#324=CARTESIAN_POINT('',(0.,0.,0.));
#325=CARTESIAN_POINT('',(0.,0.,0.));
#326=CARTESIAN_POINT('Origin',(3.4,0.,0.));
#327=CARTESIAN_POINT('',(3.4,0.236167313572391,0.185));
#328=CARTESIAN_POINT('',(3.4,-0.236167313572391,0.185));
#329=CARTESIAN_POINT('',(3.4,0.118083656786195,0.185));
#330=CARTESIAN_POINT('Origin',(3.4,0.,0.));
#331=CARTESIAN_POINT('Origin',(3.4,0.,0.));
#332=CARTESIAN_POINT('',(3.4,-0.236167313572391,-0.185));
#333=CARTESIAN_POINT('',(3.4,0.236167313572391,-0.185));
#334=CARTESIAN_POINT('',(3.4,-0.118083656786195,-0.185));
#335=CARTESIAN_POINT('Origin',(3.4,0.,0.));
#336=CARTESIAN_POINT('Origin',(6.,0.,0.));
#337=CARTESIAN_POINT('',(6.,-0.236167313572391,0.185));
#338=CARTESIAN_POINT('',(6.,-0.3,-3.67394039744206E-17));
#339=CARTESIAN_POINT('Origin',(6.,0.,0.));
#340=CARTESIAN_POINT('',(6.,-0.236167313572391,-0.185));
#341=CARTESIAN_POINT('Origin',(6.,0.,0.));
#342=CARTESIAN_POINT('',(6.,0.236167313572391,-0.185));
#343=CARTESIAN_POINT('',(6.,-0.3,-0.185));
#344=CARTESIAN_POINT('',(6.,0.236167313572391,0.185));
#345=CARTESIAN_POINT('Origin',(6.,0.,0.));
#346=CARTESIAN_POINT('',(6.,0.3,0.185));
#347=CARTESIAN_POINT('Origin',(1.7,0.,0.));
#348=CARTESIAN_POINT('',(1.7,0.236167313572391,0.185));
#349=CARTESIAN_POINT('',(1.7,0.236167313572391,-0.185));
#350=CARTESIAN_POINT('',(1.7,-0.236167313572391,-0.185));
#351=CARTESIAN_POINT('',(2.2,-0.3,-3.67394039744206E-17));
#352=CARTESIAN_POINT('',(1.7,-0.3,-3.67394039744206E-17));
#353=CARTESIAN_POINT('Origin',(2.2,0.,0.));
#354=CARTESIAN_POINT('',(1.7,-0.236167313572391,0.185));
#355=CARTESIAN_POINT('Origin',(1.29012909285413,1.94908591625969E-17,0.));
#356=CARTESIAN_POINT('',(1.2,-0.3,0.));
#357=CARTESIAN_POINT('',(1.19999999802646,0.300000003284525,3.67394043766589E-17));
#358=CARTESIAN_POINT('Origin',(1.2,0.,0.));
#359=CARTESIAN_POINT('',(1.38025818570827,1.94908591625969E-17,0.));
#360=CARTESIAN_POINT('',(1.29012909285413,0.15,1.83697019872103E-17));
#361=CARTESIAN_POINT('Origin',(1.2,0.,0.));
#362=CARTESIAN_POINT('Origin',(2.2,0.,0.));
#363=CARTESIAN_POINT('',(2.2,-0.500000007450581,-4.04156591580789E-17));
#364=CARTESIAN_POINT('Origin',(2.2,2.77555756156289E-17,2.08166817117217E-17));
#365=CARTESIAN_POINT('Origin',(0.5,0.,-0.275000004097819));
#366=CARTESIAN_POINT('',(0.5,0.1666,-0.249488361817158));
#367=CARTESIAN_POINT('',(0.3334,1.71402017408047E-17,-0.300000004470348));
#368=CARTESIAN_POINT('Ctrl Pts',(0.5,0.1666,-0.249488361817158));
#369=CARTESIAN_POINT('Ctrl Pts',(0.521514115976513,0.1666,-0.249488361817158));
#370=CARTESIAN_POINT('Ctrl Pts',(0.5440039455673,0.162201524444776,-0.252566848633246));
#371=CARTESIAN_POINT('Ctrl Pts',(0.584837509082103,0.145080299885813,-0.262775650259723));
#372=CARTESIAN_POINT('Ctrl Pts',(0.603240502973647,0.132367476517711,-0.269684289275134));
#373=CARTESIAN_POINT('Ctrl Pts',(0.632302782289706,0.103305197201651,-0.282093208036213));
#374=CARTESIAN_POINT('Ctrl Pts',(0.645061858703617,0.0848824023989151,-0.288503049934839));
#375=CARTESIAN_POINT('Ctrl Pts',(0.662222153645132,0.0439538337881731,-0.297501416749487));
#376=CARTESIAN_POINT('Ctrl Pts',(0.6666,0.0214185455169047,-0.300000004470348));
#377=CARTESIAN_POINT('Ctrl Pts',(0.6666,-0.0214185455169048,-0.300000004470348));
#378=CARTESIAN_POINT('Ctrl Pts',(0.662222153645132,-0.0439538337881732,
-0.297501416749487));
#379=CARTESIAN_POINT('Ctrl Pts',(0.645061858703617,-0.0848824023989151,
-0.288503049934839));
#380=CARTESIAN_POINT('Ctrl Pts',(0.632302782289706,-0.103305197201651,-0.282093208036213));
#381=CARTESIAN_POINT('Ctrl Pts',(0.603240502973647,-0.132367476517711,-0.269684289275134));
#382=CARTESIAN_POINT('Ctrl Pts',(0.584837509082103,-0.145080299885813,-0.262775650259723));
#383=CARTESIAN_POINT('Ctrl Pts',(0.544003945567299,-0.162201524444776,-0.252566848633246));
#384=CARTESIAN_POINT('Ctrl Pts',(0.521514115976513,-0.1666,-0.249488361817158));
#385=CARTESIAN_POINT('Ctrl Pts',(0.478485884023487,-0.1666,-0.249488361817158));
#386=CARTESIAN_POINT('Ctrl Pts',(0.455996054432701,-0.162201524444776,-0.252566848633246));
#387=CARTESIAN_POINT('Ctrl Pts',(0.415162490917897,-0.145080299885813,-0.262775650259723));
#388=CARTESIAN_POINT('Ctrl Pts',(0.396759497026353,-0.132367476517711,-0.269684289275134));
#389=CARTESIAN_POINT('Ctrl Pts',(0.367697217710294,-0.103305197201651,-0.282093208036213));
#390=CARTESIAN_POINT('Ctrl Pts',(0.354938141296383,-0.0848824023989151,
-0.288503049934839));
#391=CARTESIAN_POINT('Ctrl Pts',(0.337777846354868,-0.0439538337881731,
-0.297501416749487));
#392=CARTESIAN_POINT('Ctrl Pts',(0.3334,-0.0214185455169047,-0.300000004470348));
#393=CARTESIAN_POINT('Ctrl Pts',(0.3334,1.38777878078145E-17,-0.300000004470348));
#394=CARTESIAN_POINT('Ctrl Pts',(0.3334,1.38777878078145E-17,-0.300000004470348));
#395=CARTESIAN_POINT('Ctrl Pts',(0.3334,0.0214185455169047,-0.300000004470348));
#396=CARTESIAN_POINT('Ctrl Pts',(0.337777846354868,0.0439538337881731,-0.297501416749487));
#397=CARTESIAN_POINT('Ctrl Pts',(0.354938141296383,0.0848824023989151,-0.288503049934839));
#398=CARTESIAN_POINT('Ctrl Pts',(0.367697217710294,0.103305197201651,-0.282093208036213));
#399=CARTESIAN_POINT('Ctrl Pts',(0.396759497026353,0.132367476517711,-0.269684289275134));
#400=CARTESIAN_POINT('Ctrl Pts',(0.415162490917897,0.145080299885813,-0.262775650259723));
#401=CARTESIAN_POINT('Ctrl Pts',(0.455996054432701,0.162201524444776,-0.252566848633246));
#402=CARTESIAN_POINT('Ctrl Pts',(0.478485884023487,0.1666,-0.249488361817158));
#403=CARTESIAN_POINT('Ctrl Pts',(0.5,0.1666,-0.249488361817158));
#404=CARTESIAN_POINT('',(0.3334,2.04026156737949E-17,-0.5));
#405=CARTESIAN_POINT('',(0.3334,2.04026156737949E-17,-0.275000004097819));
#406=CARTESIAN_POINT('',(0.5,0.1666,-0.471428085714036));
#407=CARTESIAN_POINT('Ctrl Pts',(0.5,0.1666,-0.471428085714036));
#408=CARTESIAN_POINT('Ctrl Pts',(0.478900923427484,0.1666,-0.471428085714036));
#409=CARTESIAN_POINT('Ctrl Pts',(0.456517283468034,0.16235014968162,-0.472993338685163));
#410=CARTESIAN_POINT('Ctrl Pts',(0.415525100672727,0.145300770264397,-0.478505957928565));
#411=CARTESIAN_POINT('Ctrl Pts',(0.396900810892096,0.132508790383454,-0.482359161146059));
#412=CARTESIAN_POINT('Ctrl Pts',(0.367498018195044,0.103105997686402,-0.489487365673828));
#413=CARTESIAN_POINT('Ctrl Pts',(0.35470079658202,0.0844789958715575,-0.493244960530194));
#414=CARTESIAN_POINT('Ctrl Pts',(0.337647508225767,0.0434767560325977,-0.498534917040753));
#415=CARTESIAN_POINT('Ctrl Pts',(0.3334,0.021089307333026,-0.5));
#416=CARTESIAN_POINT('Ctrl Pts',(0.3334,0.,-0.5));
#417=CARTESIAN_POINT('Ctrl Pts',(0.3334,-2.08166817117217E-17,-0.5));
#418=CARTESIAN_POINT('Ctrl Pts',(0.3334,-0.021089307333026,-0.5));
#419=CARTESIAN_POINT('Ctrl Pts',(0.337647508225767,-0.0434767560325978,
-0.498534917040753));
#420=CARTESIAN_POINT('Ctrl Pts',(0.35470079658202,-0.0844789958715575,-0.493244960530194));
#421=CARTESIAN_POINT('Ctrl Pts',(0.367498018195044,-0.103105997686402,-0.489487365673828));
#422=CARTESIAN_POINT('Ctrl Pts',(0.396900810892096,-0.132508790383454,-0.482359161146059));
#423=CARTESIAN_POINT('Ctrl Pts',(0.415525100672727,-0.145300770264397,-0.478505957928565));
#424=CARTESIAN_POINT('Ctrl Pts',(0.456517283468034,-0.16235014968162,-0.472993338685163));
#425=CARTESIAN_POINT('Ctrl Pts',(0.478900923427484,-0.1666,-0.471428085714036));
#426=CARTESIAN_POINT('Ctrl Pts',(0.521099076572516,-0.1666,-0.471428085714036));
#427=CARTESIAN_POINT('Ctrl Pts',(0.543482716531966,-0.16235014968162,-0.472993338685163));
#428=CARTESIAN_POINT('Ctrl Pts',(0.584474899327273,-0.145300770264397,-0.478505957928565));
#429=CARTESIAN_POINT('Ctrl Pts',(0.603099189107904,-0.132508790383454,-0.482359161146059));
#430=CARTESIAN_POINT('Ctrl Pts',(0.632501981804956,-0.103105997686402,-0.489487365673828));
#431=CARTESIAN_POINT('Ctrl Pts',(0.64529920341798,-0.0844789958715575,-0.493244960530194));
#432=CARTESIAN_POINT('Ctrl Pts',(0.662352491774233,-0.0434767560325977,
-0.498534917040753));
#433=CARTESIAN_POINT('Ctrl Pts',(0.6666,-0.021089307333026,-0.5));
#434=CARTESIAN_POINT('Ctrl Pts',(0.6666,0.021089307333026,-0.5));
#435=CARTESIAN_POINT('Ctrl Pts',(0.662352491774233,0.0434767560325977,-0.498534917040753));
#436=CARTESIAN_POINT('Ctrl Pts',(0.64529920341798,0.0844789958715575,-0.493244960530194));
#437=CARTESIAN_POINT('Ctrl Pts',(0.632501981804956,0.103105997686402,-0.489487365673828));
#438=CARTESIAN_POINT('Ctrl Pts',(0.603099189107904,0.132508790383454,-0.482359161146059));
#439=CARTESIAN_POINT('Ctrl Pts',(0.584474899327273,0.145300770264397,-0.478505957928565));
#440=CARTESIAN_POINT('Ctrl Pts',(0.543482716531966,0.16235014968162,-0.472993338685163));
#441=CARTESIAN_POINT('Ctrl Pts',(0.521099076572516,0.1666,-0.471428085714036));
#442=CARTESIAN_POINT('Ctrl Pts',(0.5,0.1666,-0.471428085714036));
#443=CARTESIAN_POINT('Origin',(3.7,0.236167313572391,0.185));
#444=CARTESIAN_POINT('Origin',(3.7,-0.236167313572391,-0.185));
#445=CARTESIAN_POINT('Origin',(0.,0.,0.));
#446=CARTESIAN_POINT('',(0.,-0.3,0.));
#447=CARTESIAN_POINT('',(0.,-0.300000004470348,-3.67394045218804E-17));
#448=CARTESIAN_POINT('Origin',(0.,0.,0.));
#449=CARTESIAN_POINT('Origin',(0.,0.,0.));
#450=CARTESIAN_POINT('',(0.,-0.5,-6.12323399573677E-17));
#451=CARTESIAN_POINT('',(0.,-0.5,-6.12323399573677E-17));
#452=CARTESIAN_POINT('Origin',(0.,0.,0.));
#453=CARTESIAN_POINT('Origin',(0.,0.,0.));
#454=CARTESIAN_POINT('',(0.,0.,0.));
#455=UNCERTAINTY_MEASURE_WITH_UNIT(LENGTH_MEASURE(0.001),#461,
'DISTANCE_ACCURACY_VALUE',
'Maximum model space distance between geometric entities at asserted c
onnectivities');
#456=UNCERTAINTY_MEASURE_WITH_UNIT(LENGTH_MEASURE(0.001),#461,
'DISTANCE_ACCURACY_VALUE',
'Maximum model space distance between geometric entities at asserted c
onnectivities');
#457=UNCERTAINTY_MEASURE_WITH_UNIT(LENGTH_MEASURE(0.001),#461,
'DISTANCE_ACCURACY_VALUE',
'Maximum model space distance between geometric entities at asserted c
onnectivities');
#458=(
GEOMETRIC_REPRESENTATION_CONTEXT(3)
GLOBAL_UNCERTAINTY_ASSIGNED_CONTEXT((#455))
GLOBAL_UNIT_ASSIGNED_CONTEXT((#461,#463,#464))
REPRESENTATION_CONTEXT('','3D')
);
#459=(
GEOMETRIC_REPRESENTATION_CONTEXT(3)
GLOBAL_UNCERTAINTY_ASSIGNED_CONTEXT((#456))
GLOBAL_UNIT_ASSIGNED_CONTEXT((#461,#463,#464))
REPRESENTATION_CONTEXT('','3D')
);
#460=(
GEOMETRIC_REPRESENTATION_CONTEXT(3)
GLOBAL_UNCERTAINTY_ASSIGNED_CONTEXT((#457))
GLOBAL_UNIT_ASSIGNED_CONTEXT((#461,#463,#464))
REPRESENTATION_CONTEXT('','3D')
);
#461=(
LENGTH_UNIT()
NAMED_UNIT(*)
SI_UNIT(.CENTI.,.METRE.)
);
#462=(
LENGTH_UNIT()
NAMED_UNIT(*)
SI_UNIT($,.METRE.)
);
#463=(
NAMED_UNIT(*)
PLANE_ANGLE_UNIT()
SI_UNIT($,.RADIAN.)
);
#464=(
NAMED_UNIT(*)
SI_UNIT($,.STERADIAN.)
SOLID_ANGLE_UNIT()
);
#465=SHAPE_DEFINITION_REPRESENTATION(#467,#470);
#466=SHAPE_DEFINITION_REPRESENTATION(#468,#471);
#467=PRODUCT_DEFINITION_SHAPE('',$,#473);
#468=PRODUCT_DEFINITION_SHAPE('',$,#474);
#469=PRODUCT_DEFINITION_SHAPE($,$,#14);
#470=SHAPE_REPRESENTATION('',(#233,#258),#458);
#471=SHAPE_REPRESENTATION('',(#234),#459);
#472=PRODUCT_DEFINITION_CONTEXT('part definition',#480,'design');
#473=PRODUCT_DEFINITION('Spojka','Spojka v12',#475,#472);
#474=PRODUCT_DEFINITION('Component1','Component1',#476,#472);
#475=PRODUCT_DEFINITION_FORMATION('',$,#482);
#476=PRODUCT_DEFINITION_FORMATION('',$,#483);
#477=PRODUCT_RELATED_PRODUCT_CATEGORY('Spojka v12','Spojka v12',(#482));
#478=PRODUCT_RELATED_PRODUCT_CATEGORY('Component1','Component1',(#483));
#479=APPLICATION_PROTOCOL_DEFINITION('international standard',
'automotive_design',2009,#480);
#480=APPLICATION_CONTEXT(
'Core Data for Automotive Mechanical Design Process');
#481=PRODUCT_CONTEXT('part definition',#480,'mechanical');
#482=PRODUCT('Spojka','Spojka v12',$,(#481));
#483=PRODUCT('Component1','Component1',$,(#481));
#484=PRESENTATION_STYLE_ASSIGNMENT((#485));
#485=SURFACE_STYLE_USAGE(.BOTH.,#486);
#486=SURFACE_SIDE_STYLE('',(#487));
#487=SURFACE_STYLE_FILL_AREA(#488);
#488=FILL_AREA_STYLE('Steel - Satin',(#489));
#489=FILL_AREA_STYLE_COLOUR('Steel - Satin',#490);
#490=COLOUR_RGB('Steel - Satin',0.627450980392157,0.627450980392157,0.627450980392157);
ENDSEC;
END-ISO-10303-21;
